<svg
        width="464"
        height="37"
        xmlns="http://www.w3.org/2000/svg"
        viewBox="0 0 464 37"
        fill="#181818"
      >
        <path
          fill-rule="evenodd"
          clip-rule="evenodd"
          d="M196.64 13.7943C174.939 15.8369 153.502 17.9904 132.602 20.1717C103.017 23.2588 73.4454 26.3818 44.0965 30.1345C34.8583 31.3175 25.4624 32.3086 16.2915 33.6252C10.5345 34.4509 2.90387 35.5887 1.9057 35.7858C1.38403 35.8951 1.16178 36.0209 1.09004 36.0626C0.585534 36.355 0.697668 36.5959 1.00546 36.7684C1.12942 36.8429 1.4424 37.0243 2.27487 36.9951C57.9512 35.085 114.502 27.5419 170.091 23.3624C266.493 16.122 366.042 11.9649 462.114 11.1588C462.953 11.1476 463.749 10.8629 463.842 10.5158C463.959 10.1762 463.334 9.89635 462.495 9.90749C366.26 10.7155 266.548 14.8746 169.961 22.1368C118.154 26.0306 65.5191 32.8552 13.5408 35.296C14.7271 35.123 15.8902 34.9515 16.9518 34.7961C26.0856 33.482 35.4426 32.5028 44.6438 31.3223C73.93 27.5739 103.441 24.455 132.988 21.3798C169.648 17.552 207.922 13.7984 246.539 10.6295C260.372 9.76859 274.159 8.9109 287.948 8.07152C317.776 6.25754 347.773 4.85586 377.575 3.68851C386.549 3.34342 395.523 3.00749 404.495 2.63489C407.471 2.5148 415.143 2.23081 416.209 2.13965C417.531 2.03109 417.756 1.57358 417.774 1.49865C417.832 1.32884 417.77 1.10276 417.107 0.954521C417.036 0.93176 416.612 0.868496 415.68 0.876795C361.377 1.32054 303.593 4.71949 246.501 9.39762C186.202 13.1708 125.683 17.1522 65.5492 21.0983C64.6884 21.157 64.0042 21.4801 64.0204 21.8199C64.0389 22.1595 64.7513 22.3873 65.6127 22.3377C109.155 19.4776 152.917 16.6023 196.64 13.7943Z"
          fill="#181818"
        ></path>
      </svg>